<?xml version="1.0" encoding="utf-8"?>
<!-- Generator: Adobe Illustrator 18.1.0, SVG Export Plug-In . SVG Version: 6.00 Build 0)  -->
<svg version="1.1" id="レイヤー_1" xmlns="http://www.w3.org/2000/svg" xmlns:xlink="http://www.w3.org/1999/xlink" x="0px"
	 y="0px" viewBox="0 0 900 170" enable-background="new 0 0 900 170" xml:space="preserve">
<rect display="none" width="900" height="170"/>
<rect x="42.6" y="35" display="none" fill="none" stroke="#FFFFFF" stroke-width="0.1" stroke-miterlimit="10" width="100" height="100"/>
<g id="ペットボトル" display="none">
	
		<text transform="matrix(1 0 0 1 255.6026 112.4352)" display="inline" fill="#FFFFFF" font-family="'HiraKakuProN-W3-83pv-RKSJ-H'" font-size="80">ペットボトル</text>
	<g display="inline">
		<path fill="#FFFFFF" d="M187.3,58.3h-12.1v-7.4c0-0.8,0.7-1.5,1.5-1.5h9.1c0.8,0,1.5,0.7,1.5,1.5V58.3z"/>
		<path fill="#FFFFFF" d="M185.7,41h-8.9c-0.9,0-1.6-0.7-1.6-1.6v-2c0-0.9,0.7-1.6,1.6-1.6h8.9c0.9,0,1.6,0.7,1.6,1.6v2
			C187.3,40.2,186.5,41,185.7,41z"/>
		<path fill="#FFFFFF" d="M188.4,46.6H174c-0.8,0-1.4-0.6-1.4-1.4v-0.1c0-0.8,0.6-1.4,1.4-1.4h14.4c0.8,0,1.4,0.6,1.4,1.4v0.1
			C189.8,46,189.2,46.6,188.4,46.6z"/>
		<path fill="#FFFFFF" d="M181.2,54.1L181.2,54.1c-9.3,0-16.8,7.5-16.8,16.8v17.6H198V70.9C198,61.6,190.5,54.1,181.2,54.1z"/>
		<path fill="#FFFFFF" d="M164.4,91.4V123c0,1.5,1.2,2.8,2.8,2.8h28.1c1.5,0,2.8-1.2,2.8-2.8V91.4H164.4z"/>
	</g>
</g>
<g id="空き缶" display="none">
	
		<text transform="matrix(1 0 0 1 384.7031 109.2807)" display="inline" fill="#FFFFFF" font-family="'HiraKakuProN-W3-83pv-RKSJ-H'" font-size="80">あき缶</text>
	<g display="inline">
		<path fill="#FFFFFF" d="M302.6,69.9c-6.6,6.6-14,10.1-20,10l30.7,30.7c3.5,3.5,10.8,2.2,17.8-2.6l9.5-9.5c4.9-7,6.2-14.3,2.6-17.8
			l-30.7-30.7C312.7,55.9,309.2,63.3,302.6,69.9z"/>
		<path fill="#FFFFFF" d="M284.3,51.6c-8.3,8.3-11.4,18.6-7,23c4.4,4.4,14.7,1.3,23-7c8.3-8.3,11.4-18.6,7-23
			C302.9,40.2,292.6,43.3,284.3,51.6z M304.4,52.8l-5.8,3.1c-1.7,0.9-3.9,0.3-5-1.3c-1-1.5-0.7-3.3,0.7-4.3l4.4-3.2
			c1.4-1,3.7-0.8,5.1,0.5l0.7,0.7C306.2,49.6,306.2,51.8,304.4,52.8z"/>
	</g>
</g>
<g id="段ボール" display="none">
	
		<text transform="matrix(1 0 0 1 224.3576 120.7096)" display="inline" fill="#FFFFFF" font-family="'HiraKakuProN-W3-83pv-RKSJ-H'" font-size="80">ダンボール・紙</text>
	<path display="inline" fill="#FFFFFF" d="M180.8,65.8L153.4,53c0,0-0.1,0-0.2-0.1c-1.8-0.8-4.7-0.8-6.5,0c0,0,0,0,0,0
		c-0.1,0-0.1,0-0.2,0.1l-9.6,4.5l-8.5,4l-7.4,3.4l-2,0.9c0,0,0,0-0.1,0c-1.8,0.9-3.3,3.3-3.3,5.3v33.5c0,2.1,1.4,4.5,3.3,5.5
		c0,0,0,0,0,0l27.7,14.7c0.9,0.5,2.1,0.7,3.3,0.7c1.2,0,2.4-0.2,3.3-0.7l27.7-14.7c1.8-1,3.3-3.5,3.3-5.5V71.2
		C184.3,69.1,182.7,66.7,180.8,65.8z M140.1,63l25.3,13.1l-3.6,1.7L135.8,65L140.1,63z M143,99.4c0,1.4-1.5,2.3-2.7,1.7l-18.4-9.5
		c-0.6-0.3-1-1-1-1.7v-3.2c0-1.4,1.5-2.3,2.7-1.7l18.4,9c0.6,0.3,1,1,1,1.7V99.4z"/>
</g>
<g id="空き瓶スプレー">
	<text transform="matrix(1 0 0 1 134.8692 113.402)" fill="#FFFFFF" font-family="'HiraKakuProN-W3-83pv-RKSJ-H'" font-size="80">あきびん・スプレー</text>
	<g>
		<path fill="#FFFFFF" d="M66.5,71.2H54.4V46.9c0-0.8,0.7-1.5,1.5-1.5H65c0.8,0,1.5,0.7,1.5,1.5V71.2z"/>
		<path fill="#FFFFFF" d="M63.8,41.9h-6.8c-0.9,0-1.6-0.7-1.6-1.6v-3.9c0-0.9,0.7-1.6,1.6-1.6h6.8c0.9,0,1.6,0.7,1.6,1.6v3.9
			C65.5,41.2,64.7,41.9,63.8,41.9z"/>
		<path fill="#FFFFFF" d="M60.5,62L60.5,62c-8.5,0-15.3,6.9-15.3,15.3v3h8.3c2.3,0,4.1,1.8,4.1,4.1v28.4c0,2.3-1.8,4.1-4.1,4.1h-8.3
			v11.7c0,1.7,1.4,3,3,3h24.6c1.7,0,3-1.4,3-3V77.4C75.8,68.9,68.9,62,60.5,62z"/>
	</g>
</g>
<g id="燃やす" display="none">
	
		<text transform="matrix(1 0 0 1 383.1795 109.7636)" display="inline" fill="#FFFFFF" font-family="'HiraKakuProN-W3-83pv-RKSJ-H'" font-size="80">燃やす</text>
	<path display="inline" fill="#FFFFFF" d="M336.3,65.6c-0.5-1.5-2.4-1.9-3.6-0.9l-7.8,7.3c1-16.2-14.2-28-22.7-33.3
		c-1.7-1.1-3.8,0.6-3.2,2.5c6.4,21.8-25.2,25.2-22,49.6c1.6,12.3,10,22.6,21.2,26.7c-2.1-2.4-3.3-5.5-3.2-8.9
		c0.3-7.8,8.1-17.8,11.8-22c0.6-0.7,1.7-0.3,1.8,0.6c0.9,9.8,14.1,12.3,13.7,21.8c-0.1,3.3-1.5,6.4-3.6,8.7
		c12.7-4.2,21.9-16.2,21.9-30.3C340.7,79.4,338,70.2,336.3,65.6z"/>
</g>
<g id="燃やせない" display="none">
	
		<text transform="matrix(1 0 0 1 307.7087 110.4413)" display="inline" fill="#FFFFFF" font-family="'HiraKakuProN-W3-83pv-RKSJ-H'" font-size="80">燃やせない</text>
	<g display="inline">
		<g>
			<path fill="#FFFFFF" d="M215,114.1c2.4,1.7,5,3.2,7.8,4.2c-2.1-2.4-3.3-5.5-3.2-8.8L215,114.1z"/>
			<path fill="#FFFFFF" d="M201.9,93.2l40.5-40.5c-4.8-6-11.1-10.6-15.6-13.3c-1.7-1.1-3.8,0.6-3.2,2.5c6.4,21.8-25.2,25.2-22,49.6
				C201.7,92.1,201.8,92.6,201.9,93.2z"/>
			<path fill="#FFFFFF" d="M235.5,93.6c4,5.6,11.8,8.8,11.5,16.1c-0.1,3.3-1.5,6.4-3.6,8.7c12.7-4.2,21.9-16.2,21.9-30.3
				c0-7.3-2.3-15.5-3.9-20.4L235.5,93.6z"/>
		</g>
		
			<rect x="225.3" y="28.7" transform="matrix(-0.7071 -0.7071 0.7071 -0.7071 342.6024 299.3745)" fill="#FFFFFF" width="16" height="100"/>
	</g>
</g>
</svg>
